/* XPM */
static char *a075122b3e9d4ca98211bd21a4c474afUWz2AxsJHAheAupI[] = {
/* columns rows colors chars-per-pixel */
"48 48 59 1 ",
"  c #ED7157",
". c #ED7559",
"X c #ED7B5D",
"o c #F1765B",
"O c #F1795D",
"+ c #EE7F60",
"@ c #F57D62",
"# c #EF8363",
"$ c #EF8868",
"% c #F28365",
"& c #F88366",
"* c #F28867",
"= c #F78568",
"- c #F98669",
"; c #F58D6C",
": c #FB8C6C",
"> c #F6906E",
", c #FD916E",
"< c #FB8F70",
"1 c #F79471",
"2 c #FD9472",
"3 c #F79976",
"4 c #FA9976",
"5 c #FA9D79",
"6 c #FD9D79",
"7 c #FE9F7A",
"8 c #FC9E7C",
"9 c #FC9F7D",
"0 c #FAA07B",
"q c #FEA07B",
"w c #FAA17C",
"e c #FEA37E",
"r c #FCA57F",
"t c #FFA47E",
"y c #F9A480",
"u c #FBA580",
"i c #FDA783",
"p c #FAA883",
"a c #FCA883",
"s c #FEA982",
"d c #FBAA84",
"f c #FDAA84",
"g c #FBAC87",
"h c #FEAD86",
"j c #FCAF89",
"k c #FEAF88",
"l c #FBB08A",
"z c #FEB088",
"x c #FCB28C",
"c c #FCB48E",
"v c #FDB58F",
"b c #FCB690",
"n c #FEBB93",
"m c #FEBB94",
"M c #FFBD96",
"N c #FEBF98",
"B c #FEC098",
"V c #FFC49B",
"C c #FFC59D",
/* pixels */
"113ke22ez311hi227z311fs227z511sf222z511yh222zw11",
">;1zt22ez1;1hi22qz3;>fs227z3;>sh222z5;>yh222z0;>",
"113he,,qh311ft,,7k311si,,2k511is,,2k511if2,2hw11",
"nnv4&oX*3vnb2=oX%3xnn7-oX%1znn9-OX%1hmne:OO%1dnn",
"CCM2@ .%1MCB4@ .#1nCB2@ .X>vCB7&..X;zCCe&..X;dCC",
"MMb2%.X%1bMn2&.X%1vMm4&.X%>lMM7&OX#;gMM9-OX+;yMM",
"#%%-9vby;%#%-5vbp;%#%-3vbd>*#%-3xbk1*#%=2xbl1*#%",
"...-iCCg;X .&eCCz;X .&7VCv>X. @2BCn1#  @4BCM1%. ",
"X.o-iBBd>X.o-eBBk>X.o&7MBx1#..&7MBv1%..&4MBn3%X.",
",:,sw33wf2:,it33wf2::ti335h2::es335h2::qs335f7::",
"222zw;;0z222kt;;5z222hs>;3z722sf>;3zq22sh1;1ze22",
",,2hw11wh2,2hy115h2,2ss115k2,,if113h7,,th113h7,,",
"OO%1pnni:OOO>ynmf<@OX;wnnk2@OX;wnnz2%oX;5bnv4&oX",
". X;dCCf-o X*yCCk-o .*wVCx-o .%5BCb:O .%3BCm:@ .",
".XX;yMMi-OXX;wMMf-OXX*0MMk:@.X*5MMx:@.X%3nMv:@.X",
"vvl1*#%=:kvx3*#%&:fvx3;#%&-svv5;#%%-yvv9;#%%-wvv",
"CCM3%. @:mCB3%. O:bCB5%. o-xCVw*. o-kCCy*X o-fCC",
"BBn3%X.@2nBM3*X.@:vBM5*X.O:xBNw*X.O:kBBy;X.o-fBB",
"535f7::7f535sq::2f533se::2f533ii,:2fw33yi,:2sw33",
">;1zt22ez1;1hs22qz3;>fs227z3;;sh227z5;;yh222z0;;",
"113he,,qh311ht,,7k311si,,7z511is2,2k511if2,2hw11",
"nnv4=OX*3vnb2-OX%3xnn7-OX%3knn9-OO%1hnne:OO%1dnn",
"CCM2@ .%1MCN4@ .#1nCB2@ .X>vCB7&..X;zCCe&..X;gCC",
"MMn2@.X%1bMn2&.X%1vMM4&.X#>zMM7&.X#;gMM9&oX+;dMM",
"#%%-9xvt>*%%-5xvy>*%%-3xvd>*#%-2xvg1*#%=2zvk1*#%",
"...-iCCg;X .&eCCz;X .&7VCv>X  @2BCn1#  @4BCM1%  ",
"X.o-iBBd;X.o-eBBk>X.o&7BBx1#..&7MBv1%..&4MBn3%..",
"::,sw33ws,::it33wf2::ti330f2::ei535f2::7s535f7::",
"222zw;;0z222ht;;5z222hs>;3z722sf>;3zq22sh1;1ze22",
"2,2hw11wh2,2hy115k2,2ss115k2,,sf113k7,,th113hq,,",
"OO%1pnni:@O@1ynnf2@OO>wnnk2@OX;wnnz2&OX;5bnx4&OX",
"..X;dCCf-o X*yCCk-o .*wVCx-o .%5BCb:O .%3BCm:@ .",
".XX;yNNi-O.X*wMNf-O.X*wMNk:@.X*5MNx:@.X%3mNb:@.X",
"xxk1*#%=:kxl3;#%=:dxx3;#%=-yxx5;#%&-yxv5;%%%-9xx",
"CCM3%. @:mCB3%. O:bCB5%. o-xCVw*. o-kCCy*X o-fCC",
"BBn3%X.@2nBM3%X.@:vBM5*X.O:xBBw*X.O:kBBy;X.o-fBB",
"555f7::2s555sq::4f555se::2f955it::2sw55yi,:,sw55",
">;1zt22ez1;1hs22qz3;>fs227z3;;sh227z5;;yh222z0;;",
"113he,,ek311ht,,7z311si,,7z511is2,2z511yf2,2kw11",
"nnv4=oO*3xnv7-OO%3znb7-OO%3knn9:OO%1hnne:OO%1dnn",
"CCM2@ .%1MCN2@ .#1nCB2@ .X>vCB7&..X;zCCe&..X;gCC",
"BNn2@.X%1nBm2&.X%1vBM4&.X#>zBM7&.X#;kBN9&oXX;dBM",
"$%%-5xxw;*%%-5xxy>*%%-3xxd>*%%-2lxd1*%%=2kxk1*%%",
". .-iCCg;X .&eCCz;X .&7VCv>X .@2BCn1#  @4BCM1%  ",
"X.o-iBBd;X.o-eBBk>X..&7BBx1#..&2MBb1%..&4MBn1%..",
"::,it55ts,::it55ws1::ei55wf1::ei555f2::7s555f2::",
"222zw>;0z222ht;;5z222hs>;3z722sf>;3zq22sh1>1ze22",
"222zw>;0z222ht>;5z222hs>;3z722sf>;3z722ih1;1ze22"
};
