/* XPM */
static char *_89040903d7a4b868e6ded629adaab63EtxBalX2Y5IeNJKi[] = {
/* columns rows colors chars-per-pixel */
"48 48 174 2 ",
"   c None",
".  c #010101",
"X  c #0A0A03",
"o  c #060608",
"O  c #0A0A0C",
"+  c #131300",
"@  c #1B1B03",
"#  c #1C1C0D",
"$  c #0F0F12",
"%  c #040413",
"&  c #101016",
"*  c #1A1A1A",
"=  c #13131D",
"-  c #2E2E08",
";  c #282805",
":  c #3B3B00",
">  c #2F2F15",
",  c #22221F",
"<  c #343416",
"1  c #141424",
"2  c #1D1D28",
"3  c #232320",
"4  c #282824",
"5  c #25252B",
"6  c #2A2A2D",
"7  c #3A3A25",
"8  c #36362D",
"9  c #242432",
"0  c #2A2A32",
"q  c #2E2E3D",
"w  c #323232",
"e  c #333339",
"r  c #434303",
"t  c #4F4F0C",
"y  c #47471E",
"u  c #5A5A14",
"i  c #656500",
"p  c #6D6D00",
"a  c #727202",
"s  c #7A7A04",
"d  c #73730C",
"f  c #606018",
"g  c #6A6A1D",
"h  c #5D5D2F",
"j  c #49493F",
"k  c #5A5A33",
"l  c #6F6F2E",
"z  c #646432",
"x  c #777737",
"c  c #7F7F31",
"v  c #777738",
"b  c #3E3E46",
"n  c #393948",
"m  c #49494D",
"M  c #515146",
"N  c #525248",
"B  c #464654",
"V  c #4C4C57",
"C  c #535353",
"Z  c #595956",
"A  c #555559",
"S  c #7A7A4D",
"D  c #696958",
"F  c #6C6C56",
"G  c #565665",
"H  c #5D5D6D",
"J  c #636367",
"K  c #6B6B62",
"L  c #656569",
"P  c #6E6E6B",
"I  c #76766C",
"U  c #7C7C6E",
"Y  c #6E6E73",
"T  c #696978",
"R  c #767676",
"E  c #79797E",
"W  c #969600",
"Q  c #9C9C00",
"!  c #92920C",
"~  c #828213",
"^  c #AEAE05",
"/  c #B5B502",
"(  c #BCBC02",
")  c #BEBE08",
"_  c #A6A617",
"`  c #AAAA10",
"'  c #A5A519",
"]  c #AFAF1F",
"[  c #B7B711",
"{  c #BCBC14",
"}  c #80803E",
"|  c #9C9C30",
" . c #91913F",
".. c #A7A72F",
"X. c #AEAE2F",
"o. c #BDBD22",
"O. c #A3A336",
"+. c #AFAF37",
"@. c #A5A53A",
"#. c #B3B330",
"$. c #BABA34",
"%. c #B3B338",
"&. c #BBBB3D",
"*. c #C4C400",
"=. c #CBCB00",
"-. c #C3C30B",
";. c #CCCC0C",
":. c #D4D400",
">. c #DCDC01",
",. c #DDDD0A",
"<. c #C4C414",
"1. c #CDCD18",
"2. c #D3D314",
"3. c #E3E301",
"4. c #ECEC01",
"5. c #E1E10A",
"6. c #EDED0D",
"7. c #F4F401",
"8. c #FEFE00",
"9. c #F4F40A",
"0. c #FAFA0C",
"q. c #EBEB15",
"w. c #E6E61B",
"e. c #EAEA1C",
"r. c #E4E415",
"t. c #F0F010",
"y. c #C9C923",
"u. c #C6C62C",
"i. c #C8C82B",
"p. c #D6D620",
"a. c #DCDC24",
"s. c #D4D42C",
"d. c #C1C134",
"f. c #CBCB36",
"g. c #C2C23E",
"h. c #C9C938",
"j. c #D4D432",
"k. c #E4E425",
"l. c #84844E",
"z. c #8D8D4A",
"x. c #858545",
"c. c #979741",
"v. c #9C9C49",
"b. c #898956",
"n. c #8C8C5B",
"m. c #979750",
"M. c #A2A243",
"N. c #AAAA42",
"B. c #A1A14C",
"V. c #AFAF4A",
"C. c #B2B246",
"Z. c #BCBC43",
"A. c #BDBD4C",
"S. c #A4A451",
"D. c #ACAC53",
"F. c #A3A35B",
"G. c #ABAB5D",
"H. c #B0B054",
"J. c #858565",
"K. c #8C8C64",
"L. c #8D8D6A",
"P. c #959564",
"I. c #9C9C65",
"U. c #9F9F6B",
"Y. c #9B9B69",
"T. c #828271",
"R. c #8B8B77",
"E. c #83837D",
"W. c #8A8A7B",
"Q. c #A0A061",
"!. c #A9A960",
"~. c #C0C048",
"^. c #7B7B8C",
"/. c #808084",
/* pixels */
"                                                                                                ",
"                                                                                                ",
"                                                                                                ",
"                                                                                  8.8.          ",
"                                                                                  8.8.          ",
"                                                      . . . .                     8.8.      . . ",
"                                                    < * $ o . .                 4.8.8.      . . ",
"                                            8.7.>.` v N w $ . . .             *.>.7.8.      . . ",
"                                            8.4.:.[ v.U V * . . . o         *.=.>.7.8.      . . ",
"                                            8.4.:.[ B.E.V = . . o 1 G     7.3.>.4.8.4.W + . . . ",
"                                            8.4.:.[ B.T.C * . . O e P G.a.8.8.7.8.8.:.i X . . . ",
"                                          8.8.7.3.;.$.S.} u r r t l m.Z.e.8.8.8.0.e.] t X . . . ",
"                                        8.8.8.8.7.4.r.a.1.) / / ( <.p.w.9.8.8.8.k.A.l.7 X . . . ",
"                                      8.8.8.8.8.8.8.8.8.8.8.8.8.8.8.8.8.8.8.8.7.i.n.A 5 o . . . ",
"                                    8.8.8.8.8.8.8.8.8.8.8.8.8.8.8.8.8.8.8.8.8.3.' k 0 $ . . .   ",
"                                  8.8.8.8.8.8.8.8.8.8.8.8.8.8.8.0.0.0.0.8.7.3.( s - o o . .     ",
"                                8.8.8.8.8.8.8.8.8.8.8.8.7.4.5.p.j.j.j.j.j.i._ s r + . . .       ",
"                              8.8.8.8.8.8.8.8.8.8.8.8.8.4.:.<.N.Y.Y.Y.Y.Y.n.h - + X . .         ",
"                            8.8.8.8.8.7.7.8.8.8.8.8.8.8.4.:.{ M.K.I L J L A 6 o . . .           ",
"                          8.8.8.8.8.7.3.>.4.8.8.8.8.8.8.8.4.,.o.| z w 9 0 5 & o . .             ",
"                        8.8.8.8.8.8.7.:.-.>.7.8.8.8.8.8.8.8.7.>./ a ; X o o . . .               ",
"                      8.8.8.8.8.8.8.6.u.+.y.9.8.8.8.8.8.8.8.8.7.:.Q i : + . . .                 ",
"                    8.8.8.8.8.8.8.8.w.V.P.Z.6.8.8.8.8.8.8.8.8.8.7.:./ Q                         ",
"                  8.8.8.8.8.8.8.0.e.d.l.F O.6.8.8.0.q.a.w.0.8.8.8.4.>.:.                        ",
"                8.8.8.8.8.8.8.8.k.A.b.j 7 ~ 3.8.8.9.h.D.g.q.8.8.8.8.7.3.:.*.                    ",
"              8.8.8.8.8.8.7.7.q.d.n.A 2 @ a >.8.8.6.&.P.D.a.9.8.8.8.8.4.>.=.*.                  ",
"        :.7.8.8.8.8.8.8.4.,.s.Z.z.M 9 % + p >.8.8.9.y.@.M.C.h.q.8.8.8.8.4.>.:.*.                ",
"    *.*.>.7.8.8.8.8.0.4.:.[ M.J.C 3 o . + a >.8.8.7.>.-.O.P.Q.j.9.8.8.8.8.7.>.*.(               ",
"    3.>.4.8.8.7.4.w.s.o.! d z m 0 O . . @ W 4.8.8.8.4.>.#.L.R.H.j.r.4.7.8.8.4.>.=.*.            ",
"8.8.8.7.8.8.8.3.;.$.F.S y ; # * $ o .     >.8.8.8.8.8.7.u.P.E.R.I.%.;.3.7.8.8.7.3.=.(           ",
"8.0.t.w.e.e.2./ ! c D m * . . . . . .       8.8.8.8.8.0.s.Y.E T K x ! ^ 2.q.0.8.4.:.=.          ",
"    g.H.D.D.c.g r < 6 2 O . . . . .         8.8.8.8.8.8.j.Y.Y B w > r f  .A.k.8.8.4.3.          ",
"    R.E.W.W.K 8 X . o o . . . . .           8.8.8.8.8.0.j.Y.L 0 O . X 4 Z K.g.q.8.8.8.          ",
"        ^.^.H 9 o . . . . . . .             8.8.8.8.8.0.j.Y.J 6 . . . 1 q M x.&.k.0.8.          ",
"                                            8.8.8.8.8.0.j.Y.J 0 o .     O , M K.~.e.8.          ",
"                                            4.7.8.8.8.0.j.Y.J 0 o .       O n R G.f.a.          ",
"                                            :.>.7.8.8.0.j.Y.J 6 o .             Y.Q.F.          ",
"                                            *.:.4.8.8.0.j.Y.J 0 o .               E.E.          ",
"                                              >.7.8.8.0.j.Y.J 0 o .                             ",
"                                                8.8.8.0.j.Y.J 0 o .                             ",
"                                                3.4.8.0.j.Y.J 0 o .                             ",
"                                                =.:.4.7.j.Y.J 0 o .                             ",
"                                                ( =.4.7.j.Y.J 0 o .                             ",
"                                                    7.0.j.Y.J 6 o .                             ",
"                                                    8.7.j.Y.L 0 o                               ",
"                                                    4.>.d.P.Y b O                               ",
"                                                    =.*.X.K.E                                   ",
"                                                    *.( ..K./.                                  "
};
