/* XPM */
static char *d82109f7c9a747d1de9966d029cc45a5vSHZsiJLy1z0sXPy[] = {
/* columns rows colors chars-per-pixel */
"46 48 140 2 ",
"   c None",
".  c #030303",
"X  c #0A0A0A",
"o  c #131313",
"O  c #181816",
"+  c #1C1C1B",
"@  c #20201E",
"#  c #252524",
"$  c #2C2C2C",
"%  c #353535",
"&  c #3E3E3E",
"*  c #444444",
"=  c #484846",
"-  c #4A4A4A",
";  c #50504E",
":  c #545453",
">  c #595957",
",  c #5B5B5B",
"<  c #61615F",
"1  c #646464",
"2  c #686866",
"3  c #6C6C6C",
"4  c #70706E",
"5  c #747474",
"6  c #797977",
"7  c #7C7C7B",
"8  c #838383",
"9  c #898987",
"0  c #8C8C8C",
"q  c #91918F",
"w  c #949493",
"e  c #999997",
"r  c #9C9C9B",
"t  c #A1A19F",
"y  c #A3A3A3",
"u  c #A9A9A7",
"i  c #ABABAB",
"p  c #B1B1AF",
"a  c #B4B4B4",
"s  c #B9B9B7",
"d  c #BCBCBB",
"f  c #C0C0BE",
"g  c #C3C3C1",
"h  c #C2C2C0",
"j  c gray76",
"k  c #C3C3C3",
"l  c #C1C1C1",
"z  c #C4C4C2",
"x  c #C5C5C3",
"c  c gray77",
"v  c #C5C5C5",
"b  c #C7C7C5",
"n  c #C6C6C6",
"m  c gray78",
"M  c #C4C4C4",
"N  c #C9C9C7",
"B  c #C8C8C8",
"V  c gray79",
"C  c #CACAC8",
"Z  c #CBCBC9",
"A  c #CACACA",
"S  c #CBCBCB",
"D  c #CDCDCB",
"F  c gray80",
"G  c #CDCDCD",
"H  c #CECECC",
"J  c #CFCFCD",
"K  c #CECECE",
"L  c gray81",
"P  c #CBCBCB",
"I  c #D0D0CE",
"U  c #D0D0D0",
"Y  c gray82",
"T  c #D3D3D1",
"R  c #D2D2D2",
"E  c LightGray",
"W  c #D4D4D2",
"Q  c #D5D5D3",
"!  c gray83",
"~  c #D5D5D5",
"^  c #D6D6D4",
"/  c #D7D7D5",
"(  c gray84",
")  c #D7D7D7",
"_  c #D3D3D3",
"`  c #D8D8D8",
"'  c gray85",
"]  c #DADAD8",
"[  c #DADADA",
"{  c gray86",
"}  c #DCDCDA",
"|  c #DDDDDB",
" . c gainsboro",
".. c #DDDDDD",
"X. c #DEDEDC",
"o. c #DFDFDD",
"O. c gray87",
"+. c #DFDFDF",
"@. c #DBDBDB",
"#. c #E1E1DF",
"$. c gray88",
"%. c #E1E1E1",
"&. c #E2E2E2",
"*. c gray89",
"=. c #E4E4E4",
"-. c gray90",
";. c #E6E6E4",
":. c #E6E6E6",
">. c #E7E7E7",
",. c #E4E4E4",
"<. c gray91",
"1. c #E9E9E9",
"2. c #EAEAE8",
"3. c #EAEAEA",
"4. c gray92",
"5. c #ECECEC",
"6. c gray93",
"7. c #EFEFED",
"8. c #EEEEEE",
"9. c #EFEFEF",
"0. c #ECECEC",
"q. c gray94",
"w. c #F1F1F1",
"e. c #F3F3F1",
"r. c gray95",
"t. c #F3F3F3",
"y. c gray96",
"u. c #F6F6F4",
"i. c #F7F7F5",
"p. c #F6F6F6",
"a. c gray97",
"s. c #F4F4F4",
"d. c #F8F8F8",
"f. c #F9F9F9",
"g. c gray98",
"h. c #FCFCFA",
"j. c #FDFDFD",
"k. c #FFFFFD",
"l. c white",
"z. c #FDFDFD",
/* pixels */
"                                                                                            ",
"                                                                                            ",
"                                                                                            ",
"                                                                                            ",
"                                                                                            ",
"                                  ) [ ) F ) 3.                                              ",
"                              O.) U U F v ) 3.q.                                            ",
"                          3.3.%.V d d d d V O.%.v                                           ",
"                        O.[ ) ) v v v F V V W U l a a                                       ",
"                    d.q.O.U [ l l d d a a i i d v v a a           F -.                      ",
"                    a.-.v v ) d w r r w t y y s a p x N V [ q.) F V 9.q.O.                  ",
"                    U d a a d l x V l V F d u t w w i d d D W a d d U 3.%.) O.              ",
"                    -.d i i y l p f W F U O.f r l v d a i i u r y d V [ 9.q.9.%.            ",
"                  3.q.l y a y a e x d d a a U p f a f V ) | | i r y a V q.a.O.) 9.-.l v     ",
"                ) U -.F r w y 3.O.y y y i u 4 5 y a a a s a d a i y i i V [ l l -.9.) -.    ",
"              F v l a 0 7 0 r l i y s p w , + # > 8 r a a a d [ F y y i d a a U U %.%.a.    ",
"      d.    U i 0 r w 3 9 y y r w w 7 * O X X X X X + * 5 y d v W i 8 V | s e a O.3.q.      ",
"      j.  q.l 8 5 l 9.U y r 0 - % # o . . X X . . . . X . # 0 a d d 5 r [ V y a U q.        ",
"    a.j.a.-.l y a 9.d.  U 2 # X X X X X X X X . X X . . X . # r i i 7 5 d a q s 3.a.        ",
"j.  q.3.%.[ U %.[ %.a.  7 . . X X . X o X X X . . . X . X . . % r 0 5 = 1 5 8 r 9.d.        ",
"3.  l d V ) %.9.U l v   r & o o X X X X X X X . . . X . . . X . # : e f w < 8 8 O.a.q.q.    ",
"3.%.i d d r y i 9 9 r a     5 X + + + o . . . . . . . . X . . . . , h.j.d 5 d d ) U [ 9.a.  ",
"q.-.d F d 7 5 9 w 8 9 a -.3., . X X X X X X . . X . X . . X . . . $ 9.a.| r 3.a.v y d %.a.a.",
"9.) d v d w 5 w y r w l ) v $ . . X . . . . . X . X . X X . X . . O a #.f r -.-.v r d F ) -.",
"q.a a i i w 5 0 w w 7 w 7 % X X X . . . . . . . . . . . X X X . . . 2 i r 7 r u r i V O.-.q.",
"3.v i r l ) V 7 , 3 3 2 O . . X X X X X . . . X . . . . . . . . X . + 7 q 0 1 7 8 0 y F -.3.",
"-.%.O.v ) ) [ 3 % , 5 2 O X X . X X X X . . . . . . . . . . . . . . o 0 w 9 : 7 5 7 0 V 3.  ",
"%.O.%.a d F V 2 % - : * $ X . X X X . . X X . . . . . . . . . . . % ; 6 5 3 < 4 , 5 w U 9.  ",
"9.  9.P l d i 8 7 7 3 7 w 1 X X X X . . . X . . . . . X X . . . @ r ) s 2 2 y e 9 r v -.a.  ",
"      9.-.d w 7 y w 5 r a r # . X X X X . . . X X . X X X X X X 7 U I I y q i x y l O.%.    ",
"        U i 7 1 7 7 5 r r w # . X X X X . . . X X X X X X X X X 3 D I r 2 q l a 9 d %.      ",
"        -.v r w 9 9 9 w w w % X X X X X X X . . X . . X X X X X , 7 0 3 8 t d w 7 l         ",
"          -.-.a.) d -.U i [ F , . . X . . X X . . X . X . X X # > , - 3 [ F 0 1 d           ",
"          %.O.O.V r l U a U d.O.> + . X X . X X . . . X % 5 7 3 , * , a O.i 8 9             ",
"            [ V a i V l v i %.a.a.V 3 : , , , = = = : 0 d v w 3 : 1 9 V %.d w               ",
"            ) a r r i d a d O.%.3.a.j.v 0 9 7 8 r d l v a ) a r w y y a V                   ",
"              d d L r 5 5 y F v F 9.d.j.U 0 9 l d U [ ) l -.U [ d y i a                     ",
"                  j.-.0 3 3 i i l [ 3.j.a.) y r i [ U d v ) 9.) U w 8                       ",
"                  j.q.-.i 3 3 w l F y i r 5 , 3 7 r 7 7 d U q.v r 8                         ",
"                      -.U i 0 r d d y y r w 1 5 5 3 7 5 i a 9 7                             ",
"                        U -.3.F y r i y i a r w i r 8 8 a y                                 ",
"                            j.q.i r r r i d i r a l a y d                                   ",
"                                l i y y d v d a d l                                         ",
"                                                                                            ",
"                                                                                            ",
"                                                                                            ",
"                                                                                            ",
"                                                                                            "
};
