/* XPM */
static char *a4c18624fd154ff3ffd7afab50a2c36eigINw39FMfvU9thq[] = {
/* columns rows colors chars-per-pixel */
"48 48 220 2 ",
"   c None",
".  c #000000",
"X  c #0A0A0A",
"o  c #0A0A03",
"O  c #141400",
"+  c #0A1617",
"@  c #262500",
"#  c #282100",
"$  c #31390F",
"%  c #1D1D25",
"&  c #2D2D2E",
"*  c #0A3027",
"=  c #346934",
"-  c #47470A",
";  c #7C7C00",
":  c #46473C",
">  c #3C3C4C",
",  c #084D46",
"<  c #197378",
"1  c #4F4F4F",
"2  c #525252",
"3  c #616141",
"4  c #7E7F7F",
"5  c #6B6B76",
"6  c #BD2C00",
"7  c #C71D09",
"8  c #C61904",
"9  c #DD171A",
"0  c #FF0200",
"q  c #FE1800",
"w  c #FF1E16",
"e  c #C32F00",
"r  c #CF3811",
"t  c #FD2601",
"y  c #FA3B00",
"u  c #C54500",
"i  c #C55900",
"p  c #D35900",
"a  c #D04600",
"s  c #E94D00",
"d  c #FF4800",
"f  c #F05800",
"g  c #C16700",
"h  c #D96B00",
"j  c #CE7105",
"k  c #FA6401",
"l  c #E87200",
"z  c #F44521",
"x  c #CC6837",
"c  c #807E7D",
"v  c #D3464E",
"b  c #D24B4A",
"n  c #D27657",
"m  c #61A03F",
"M  c #5FA647",
"N  c #69BA57",
"B  c #53B969",
"V  c #769671",
"C  c #79D459",
"Z  c #64C357",
"A  c #59C967",
"S  c #6DD469",
"D  c #9A9A00",
"F  c #989600",
"G  c #879711",
"H  c #B59819",
"J  c #BFA400",
"K  c #B4B400",
"L  c #BEBE01",
"P  c #B3B519",
"I  c #97963B",
"U  c #ABAB29",
"Y  c #A4A539",
"T  c #B3B232",
"R  c #C18700",
"E  c #D88900",
"W  c #CC9E00",
"Q  c #E58C00",
"!  c #FE8700",
"~  c #E69B00",
"^  c #E99D00",
"/  c #E59600",
"(  c #FF9D00",
")  c #C1A500",
"_  c #C9AB00",
"`  c #C4BA02",
"'  c #D6BA00",
"]  c #EDA500",
"[  c #FDA100",
"{  c #FEB702",
"}  c #EFBE00",
"|  c #D4A620",
" . c #E0A223",
".. c #EA9C30",
"X. c #A8C218",
"o. c #B7C814",
"O. c #92C431",
"+. c #AEE335",
"@. c #C2C201",
"#. c #CCCC01",
"$. c #C2C507",
"%. c #D4C900",
"&. c #CED10A",
"*. c #D3D400",
"=. c #DBDB01",
"-. c #D7DB00",
";. c #C6C817",
":. c #CFDF10",
">. c #FFC900",
",. c #E6DE00",
"<. c #FBD700",
"1. c #E7D10F",
"2. c #DEE500",
"3. c #CDE614",
"4. c #E4E401",
"5. c #ECEC00",
"6. c #E7E904",
"7. c #FCEC02",
"8. c #ECF300",
"9. c #F3F400",
"0. c #FEF200",
"q. c #F5FA01",
"w. c #FEFE00",
"e. c #FDFD0C",
"r. c #F6F60E",
"t. c #E7E71A",
"y. c #FDFE13",
"u. c #FCFC1C",
"i. c #E4F814",
"p. c #CFCF2B",
"a. c #E2DC21",
"s. c #EAEA27",
"d. c #F8F82A",
"f. c #FFFF35",
"g. c #FBFA39",
"h. c #E9E938",
"j. c #C6F62D",
"k. c #96965C",
"l. c #999646",
"z. c #ABAA51",
"x. c #86857B",
"c. c #8A8A69",
"v. c #9BAB56",
"b. c #FFB274",
"n. c #87D34B",
"m. c #8AE359",
"M. c #8CE357",
"N. c #98E74E",
"B. c #D3D34D",
"V. c #FCFC44",
"C. c #FDFD54",
"Z. c #E8E84F",
"A. c #DBDB6A",
"S. c #D9D976",
"D. c #CFCD64",
"F. c #FFFF64",
"G. c #FFFF68",
"H. c #F2F271",
"J. c #CEEA7A",
"K. c #007F86",
"L. c #7D7D85",
"P. c #068E8A",
"I. c #36BA8A",
"U. c #28B98E",
"Y. c #00BFBF",
"T. c #06B7B7",
"R. c #0AB4B1",
"E. c #49858A",
"W. c #539895",
"Q. c #4A9492",
"!. c #6B9280",
"~. c #34C590",
"^. c #15C3AE",
"/. c #02C1BE",
"(. c #09C4BB",
"). c #0CC4B8",
"_. c #25C9A5",
"`. c #01BEC4",
"'. c #00C1C2",
"]. c #00C2CA",
"[. c #2BCBCB",
"{. c #55D5D5",
"}. c #74DDDD",
"|. c #838182",
" X c #979798",
".X c #AEB08F",
"XX c #9D9DA5",
"oX c #A7A7A6",
"OX c #ACACB2",
"+X c #E38C95",
"@X c #E18A8F",
"#X c #D2D287",
"$X c #CACA95",
"%X c #FEFD88",
"&X c #FFFF95",
"*X c #EBE790",
"=X c #C3C3B5",
"-X c #CECEB2",
";X c #FDC1BB",
":X c #FFFFA5",
">X c #EAEABA",
",X c #FDFDB8",
"<X c #F0E8B2",
"1X c #E6D19E",
"2X c #B9B9C4",
"3X c #84E1E1",
"4X c #A0E8E8",
"5X c #C9C9D8",
"6X c #CBCBC7",
"7X c #F6DADB",
"8X c #F4D9D3",
"9X c #FCFCC7",
"0X c #FEFED6",
"qX c #DDDDEA",
"wX c #F8DBE2",
"eX c #FAFAE7",
"rX c #FFFFFF",
"tX c #FCFEF5",
"yX c #E6EFF1",
"uX c #D1F4F4",
/* pixels */
"                                                                                                ",
"                                                                                                ",
"                                      rXrXyX{.Y.Y.'.'.'.'.'.'.'.'.'.                            ",
"                                    uX3X}.}.[./.'.'.'.'.'.'.'.'./././.                          ",
"                                  yX4X[.Y.'.'.'.'.'.'.'.'.'.'.'.'.'.'./.                        ",
"                                  {.[.'.Y.Y.`.].].].].].].].].].].].'./.                        ",
"                                  `.`.'.]./._.I.Q.E.E.E.Q.I.~.I.I.I.^.].                        ",
"                    '.'.'.'.'./././././.].).Z H r 9 9 9 r H X.X.X.O.~.'.                        ",
"                  '.'.'.'.`.`.U.A S S A B Z o.>.! k s q q ^ 4.,.,.-.n.B !.                      ",
"                  '.'.'.'./.^.Z ;.6.6.;.o.;.6.w.w.6.' s t { y.y.e.q.-.P k.x.                    ",
"                          A N.J.*Xa.a.*X<X*Xg.w.w.q.5.k w b.:X:XC.w.9.=.T Y                     ",
"                            f.%X>XD.A.eXrXtX%Xd.e.0.>.k z ;XrXrX:Xf.e.9.#.L                     ",
"                        w.C.,XS.B.*XeXrXrXrXeX:Xd.{ d h | >XrXrXtX,XV.9.#.L @.                  ",
"                      -.q.F.tXS.;.>XyXOX XoXqX0Xf.{ k ..D..XXXoX5XtXF.9.4.#.@.U                 ",
"                    L #.9.G.0XA.p.,X2X& . & OX0Xf.w.7.%X6X2 X + L.eXG.w.w.4.@.l.x.              ",
"                    4.t.H.&XG.s.s.9X2X+ . X XX0Xf.w.w.&XqX> . . 5 eXG.w.w.5.@.U Y               ",
"                    w.f.,X&Xy.w.u.:X=X- O $ .X,XV.r.d.%X>X3 O @ c.9XC.w.w.5.@.L @.              ",
"                    w.y.g.f.w.w.e.f.h.$.K L s.C.S.#X#XH.g.&.K K a.V.u.w.w.5.#.o.@.              ",
"                    w.0.>.{ { <.w.w.w.w.w.e.u.Z.-X5X6XS.s.e.w.w.w.w.w.0.>.] E ) @.              ",
"                    w.<.d q t ( w.w.w.w.w.e.A.-XyXqX6X=X#Xd.w.w.w.w.w.>.d q t h `               ",
"                    w.>.t 0 0 ! w.w.w.w.w.y.#X5XqX5XoX.XD.t.w.w.w.w.w.>.t 0 0 h `               ",
"                    w.>.d 0 q ! 7.w.w.w.w.e.A.=X=XoXx.Y &.9.w.w.w.w.w.{ y 0 q h `               ",
"                    w.0.{ [ ( l h <.w.w.w.e.d.Z.B.T U ;.5.q.w.w.w.w./ p h Q [ ' @.              ",
"                    9.9.w.w.w.E e / <.w.w.w.w.q.-.#.*.5.w.w.w.w.7.} p u _ 2.8.&.P               ",
"                    #.-.9.w.w.%.R u h 7.w.w.w.w.q.9.9.w.w.w.w.w.] a g _ 4.5.#.Y c.              ",
"                      *.9.w.w.8.%.g i Q ^ ~ ~ ~ ^ ^ ^ ~ ~ ~ ^ ~ h u W 2.6.=.@.Y L.              ",
"                        w.w.w.w.9.%.R e 8 7 7 7 7 7 7 7 7 7 8 8 i _ 4.9.*.@.o.                  ",
"                          w.w.w.w.8.%.g x @X+X+X+X+X+X+X+X+Xn g W 4.w.q.#.L                     ",
"                            w.w.w.w.5.#.D.8XwX7X7X7X7X7X7XwX1X;.-.q.r.t.;.P                     ",
"                              w.w.w.w.9. .b v v v v v v v v x ` 2.q.p.k.k.k.                    ",
"                                w.w.w.w.] a e 6 6 6 6 6 6 6 i ' 6.4.z.L.L.5                     ",
"                                  w.w.w.0.<.' J J ) ) ) ) J ' 5.4.$.k.|.|.2 X                   ",
"                                  m.m.M.j.w.9.2.2.2.2.2.4.4.3.N.C N V |.|.1 X .                 ",
"                                  (./.(.S i.q.q.q.q.q.q.q.q.+._.'.R.W.|.|.2 X . . . .           ",
"                                  `.`.`._.S +.4.4.=.,.4.:.m.~./.].`.W.|.|.2 X . . . . . . .     ",
"                                  '.'.'.].T.M F F F F D G U.].'.'.T.W.|.|.2 X . . . . . . .     ",
"                                '.'.'.'.].T., @ @ @ @ # $ P.].'.'.T.W.|.|.2 X . . . . . . .     ",
"                              < K.R.].`.].T., . . . . . + P.].`.].`.W.|.|.2 X . . . . . . .     ",
"                            4 : * P.(.(.(.R., . . . . . + P.(.(./.R.W.x.c 1 X . . . . . . .     ",
"                           XXXl.G O.m.m.C N = . . . . . + m M.m.C N v.I : % . . . . . .         ",
"                        4  X$XZ.w.w.w.w.4.#.    . . . o - @.w.w.4.#.#.D $ o . . . . .           ",
"                        L.v.h.y.w.w.w.w.w.5.-.K       F @.5.w.w.w.5.-.K F - o .                 ",
"                        L.z.9.w.w.w.w.w.w.w.-.@.        w.w.w.w.w.w.-.@.#.; O                   ",
"                                                                                                ",
"                                                                                                ",
"                                                                                                ",
"                                                                                                ",
"                                                                                                "
};
