/* XPM */
static char *_497c38e3bff4a74876df9a991de9010YaarDLlljYW08YeK[] = {
/* columns rows colors chars-per-pixel */
"48 48 246 2 ",
"   c black",
".  c #0C0C0C",
"X  c black",
"o  c black",
"O  c black",
"+  c black",
"@  c black",
"#  c None",
"$  c #040303",
"%  c gray2",
"&  c gray1",
"*  c gray18",
"=  c black",
"-  c #151515",
";  c gray3",
":  c gray34",
">  c gray15",
",  c black",
"<  c #002020",
"1  c #005353",
"2  c #005E5E",
"3  c #005C5C",
"4  c #005B5B",
"5  c #005252",
"6  c #003C3C",
"7  c #001313",
"8  c #00D8D8",
"9  c #00F1F1",
"0  c #00E9E9",
"q  c #00EAEA",
"w  c #00E7E7",
"e  c #03CFCF",
"r  c #049797",
"t  c #013030",
"y  c #00FDFD",
"u  c #00E5E5",
"i  c #00E4E4",
"p  c #03E3E3",
"a  c #29C7C7",
"s  c #3C8D8D",
"d  c #132B2B",
"f  c #131010",
"g  c #3A3A3A",
"h  c #00C1C1",
"j  c #00BFBF",
"k  c #00C0C0",
"l  c #00C2C2",
"z  c #05BEBE",
"x  c #4AA2A2",
"c  c #6D6F6F",
"v  c #231F1F",
"b  c #222222",
"n  c #6D6D6D",
"m  c #505050",
"M  c #00BEBE",
"N  c #00C4C4",
"B  c #05BDBD",
"V  c #4CA0A0",
"C  c #706D6D",
"Z  c gray44",
"A  c #767676",
"S  c #00C3C3",
"D  c #00A8A8",
"F  c #009191",
"G  c #00ADAD",
"H  c #6E6F6F",
"J  c #202020",
"K  c gray43",
"L  c #8B8B8B",
"P  c #797979",
"I  c gray18",
"U  c #006E6E",
"Y  c #002D2D",
"T  c #007E7E",
"R  c #898989",
"E  c #2D2D2D",
"W  c #00C7C7",
"Q  c #00AEAE",
"!  c #007575",
"~  c #002C2F",
"^  c #000006",
"/  c #00373A",
"(  c #00B5B5",
")  c #00BABA",
"_  c #008081",
"`  c #001E1E",
"'  c #070500",
"]  c #0D0E01",
"[  c #060400",
"{  c #002929",
"}  c #008E8E",
"|  c #00BDBD",
" . c #00C8C8",
".. c #00B6B6",
"X. c #006D6D",
"o. c #00292D",
"O. c #000005",
"+. c #383200",
"@. c #6B6A00",
"#. c #2B2600",
"$. c #000109",
"%. c #003235",
"&. c #007878",
"*. c #00B1B1",
"=. c #008484",
"-. c #002528",
";. c #060000",
":. c #222100",
">. c #757500",
",. c #B1B100",
"<. c #666600",
"1. c #1C1A00",
"2. c #050000",
"3. c #00C5C5",
"4. c #007070",
"5. c #002122",
"6. c #282500",
"7. c #848400",
"8. c #B3B300",
"9. c #BDBD00",
"0. c #AFAF00",
"q. c #797800",
"w. c #007B7B",
"e. c #002C31",
"r. c #2D2900",
"t. c #6D6D00",
"y. c #B6B600",
"u. c #C8C800",
"i. c #C1C100",
"p. c #C9C900",
"a. c #AEAE00",
"s. c #626200",
"d. c #262000",
"f. c #010000",
"g. c #00383C",
"h. c #008383",
"j. c #00B3B2",
"k. c #00C6C6",
"l. c #001C1C",
"z. c #000001",
"x. c #1E1E00",
"c. c #818000",
"v. c #BABA00",
"b. c #BFBF00",
"n. c #C0C000",
"m. c #B7B700",
"M. c #727200",
"N. c #141400",
"B. c #000002",
"V. c #002626",
"C. c #008989",
"Z. c #322C00",
"A. c #C7C700",
"S. c #C2C200",
"D. c #C6C600",
"F. c #A7A700",
"G. c #6C6C00",
"H. c #292200",
"J. c #000106",
"K. c #00363A",
"L. c #007A7A",
"P. c #00B8B8",
"I. c #BEBE00",
"U. c #C3C300",
"Y. c #C4C400",
"T. c #B9B900",
"R. c #171700",
"E. c #040000",
"W. c #002E2F",
"Q. c #009090",
"!. c #A9AA00",
"~. c #777600",
"^. c #221D00",
"/. c #00020A",
"(. c #B2B200",
"). c #606000",
"_. c #ABAB00",
"`. c #6B6B00",
"'. c #2F2900",
"]. c #030502",
"[. c #003638",
"{. c #007777",
"}. c #ACAC00",
"|. c #5C5B00",
" X c #060802",
".X c #000308",
"XX c #003939",
"oX c #009E9E",
"OX c #A6A600",
"+X c #5C5C00",
"@X c #251E00",
"#X c #030603",
"$X c #004345",
"%X c #008686",
"&X c #00B2B2",
"*X c #A9A900",
"=X c #6C6A00",
"-X c #121000",
";X c #00040B",
":X c #003232",
">X c #008B8B",
",X c #545400",
"<X c #171300",
"1X c #030100",
"2X c #004042",
"3X c #009697",
"4X c #00B7B7",
"5X c #A1A100",
"6X c #696800",
"7X c #1C1600",
"8X c #00050E",
"9X c #003B3D",
"0X c #5D5C00",
"qX c #0E0E00",
"wX c #010100",
"eX c #003637",
"rX c #009A9A",
"tX c #201900",
"yX c #004346",
"uX c #008786",
"iX c #003030",
"pX c #01BFBF",
"aX c #49A2A2",
"sX c #09BBBB",
"dX c #4CA1A1",
"fX c #6F9797",
"gX c #727272",
"hX c #232121",
"jX c #5F5F5F",
"kX c #1B1B1B",
"lX c gray13",
"zX c #6F6F6F",
"xX c #020303",
"cX c #717171",
"vX c #323232",
"bX c #535353",
"nX c #777777",
"mX c #2F2F2F",
"MX c gray12",
"NX c gray27",
"BX c gray19",
"VX c #3F3F3F",
"CX c gray25",
"ZX c #191919",
"AX c gray3",
"SX c white",
/* pixels */
", , , , , , , , , , , , , , , , , , , , , , , , , , , , , , , , , , , , , , , , , , X o         ",
", < 1 2 3 3 3 3 3 3 3 3 3 3 3 3 3 3 3 3 3 3 3 3 3 3 3 3 3 3 3 3 3 3 3 3 3 3 4 5 6 7 O + @ .     ",
", 1 8 9 0 0 0 0 0 0 0 0 0 0 0 0 0 0 0 0 0 0 0 0 0 0 0 0 0 0 0 0 0 0 0 0 0 q w e r t # $ % & .   ",
", 2 9 y u i u u u u u u u u u u u u u u u u u u u u u u u u u u u u u u u w p a s d f g * = @   ",
", 3 0 u h j k k k k k k k k k k k k k k h h h k k k k k k k k k k k k k k l z x c v b n m - ; o ",
", 3 0 i j M j j j j j j j j j j j j j j l N h j j j j j j j j j j j j j j h B V C v b Z A : > X ",
", 3 0 u k j k k k k k k k k k k k k l S D F G N h k k k k k k k k k k k k l z x H v J K L P I , ",
", 3 0 u k j k k k k k k k k k k k k S M U Y T l l k k k k k k k k k k k k l z x H v J K R A E , ",
", 3 0 u k j k k k k k k k k k k h W Q ! ~ ^ / T ( W h k k k k k k k k k k l z x H v J K R A E , ",
", 3 0 u k j k k k k k k k k k h j ) _ ` ' ] [ { } | j h k k k k k k k k k l z x H v J K R A E , ",
", 3 0 u k j k k k k k k k k k  ...X.o.O.+.@.#.$.%.&.| W k k k k k k k k k l z x H v J K R A E , ",
", 3 0 u k j k k k k k k k l k *.=.-.;.:.>.,.<.1.2.%.} ( l h k k k k k k k l z x H v J K R A E , ",
", 3 0 u k j k k k k k k k 3.| 4.5.^ 6.7.8.9.0.q.1.$.{ T l N k k k k k k k l z x H v J K R A E , ",
", 3 0 u k j k k k k k l 3.G w.e.2.r.t.y.u.i.p.a.s.d.f.g.h.j.k.h k k k k k l z x H v J K R A E , ",
", 3 0 u k j k k k k k k | w.l.z.x.c.v.b.i.n.i.b.m.M.N.B.V.C.k k k k k k k l z x H v J K R A E , ",
", 3 0 u k j k k k h  .*.4.e.z.Z.>.a.A.i.n.n.n.S.D.F.G.H.J.K.L.P. .k k k k l z x H v J K R A E , ",
", 3 0 u k j k k h j ..=.5.2.x.>.I.U.n.n.n.n.n.n.n.Y.T.<.R.E.W.Q.P.k h k k l z x H v J K R A E , ",
", 3 0 u k j k k W ) X.-.^ r.c.a.U.S.n.n.n.n.n.n.n.U.i.!.~.^./.W.L.k k.k k l z x H v J K R A E , ",
", 3 0 u k j l S Q _ o.;.6.t.v.A.n.n.n.n.n.n.n.n.n.n.n.u.(.).^.E.K.C.j.N h l z x H v J K R A E , ",
", 3 0 u k j S M ! ` O.:.7.y.b.i.n.n.n.n.n.n.n.n.n.n.n.i.I.(.~.R.J.V.h.l l l z x H v J K R A E , ",
", 3 0 u h l D U ~ ' +.>.8.u.i.n.n.n.n.n.n.n.n.n.n.n.n.n.i.u._.`.'.].[.{.Q 3.z x H v J K R A E , ",
", 3 0 u h N F Y ^ ] @.,.9.i.n.n.n.n.n.n.n.n.n.n.n.n.n.n.n.i.9.}.|. X.XXXoX .z x H v J K R A E , ",
", 3 0 u h h G T / [ #.<.0.p.i.n.n.n.n.n.n.n.n.n.n.n.n.n.i.u.OX+X@X#X$X%X&XN z x H v J K R A E , ",
", 3 0 u k j N l T { $.1.q.a.b.S.n.n.n.n.n.n.n.n.n.n.n.U.9.*X=X-X;X:X>X3.l l z x H v J K R A E , ",
", 3 0 u k j h l ( } %.2.1.s.m.D.n.n.n.n.n.n.n.n.n.n.n.A.a.,X<X1X2X3X4Xl h l z x H v J K R A E , ",
", 3 0 u k j k k W | &.%.$.d.M.F.Y.U.n.n.n.n.n.n.n.Y.S.5X6X7X8X9X=.l k.k k l z x H v J K R A E , ",
", 3 0 u k j k k h j | } { f.N.G.T.i.n.n.n.n.n.n.n.S.8.0XqXwXeXrXM k k k k l z x H v J K R A E , ",
", 3 0 u k j k k k h W ( T g.B.H.<.!.u.i.n.n.n.U.A.5X0XtX.XyXuX) W k k k k l z x H v J K R A E , ",
", 3 0 u k j k k k k k l l h.V.J.R.~.(.I.i.n.i.9.a.6XqX.XiXF N h k k k k k l z x H v J K R A E , ",
", 3 0 u k j k k k k k h N j.C.K.E.^.).(.u.i.u.*X,X7XwXyXF ..N h k k k k k l z x H v J K R A E , ",
", 3 0 u k j k k k k k k k k.k L.W./.^.~._.9.OX=X<X8XeXuXN N k k k k k k k l z x H v J K R A E , ",
", 3 0 u k j k k k k k k k h k P.Q.W.E.R.`.}.+X-X1X9XrX) h h k k k k k k k l z x H v J K R A E , ",
", 3 0 u k j k k k k k k k k k  .P.L.K.J.'.|.@X;X2X=.M W k k k k k k k k k l z x H v J K R A E , ",
", 3 0 u k j k k k k k k k k k k k k C.V.]. X#X:X3Xl k k k k k k k k k k k l z x H v J K R A E , ",
", 3 0 u k j k k k k k k k k k k h k.j.h.[..X$X>X4Xk.k k k k k k k k k k k l z x H v J K R A E , ",
", 3 0 u k j k k k k k k k k k k k k N l {.XX%X3.l k k k k k k k k k k k k l z x H v J K R A E , ",
", 3 0 u k j k k k k k k k k k k k k h l Q oX&Xl h k k k k k k k k k k k k l z x H v J K R A E , ",
", 3 q w l h l l l l l l l l l l l l l l 3. .N l l l l l l l l l l l l l l S pXaXc v J K R A E , ",
", 4 w p z B z z z z z z z z z z z z z z z z z z z z z z z z z z z z z z z pXsXdXH v J K R A E , ",
", 5 e a x V x x x x x x x x x x x x x x x x x x x x x x x x x x x x x x x aXdXfXgXhXJ K R A E , ",
", 6 r s c C H H H H H H H H H H H H H H H H H H H H H H H H H H H H H H H c H gXjXkXlXzXR A E , ",
", 7 t d v v v v v v v v v v v v v v v v v v v v v v v v v v v v v v v v v v v hXkXxXlXcXL A E , ",
"X O # f b b J J J J J J J J J J J J J J J J J J J J J J J J J J J J J J J J J J lXlXvXbXgXnXmX, ",
"o + $ g n Z K K K K K K K K K K K K K K K K K K K K K K K K K K K K K K K K K K zXcXbXMXNXcXBX, ",
"  @ % * m A L R R R R R R R R R R R R R R R R R R R R R R R R R R R R R R R R R R L gXNXVXCXZX, ",
"  . & = - : P A A A A A A A A A A A A A A A A A A A A A A A A A A A A A A A A A A A nXcXCXAX, , ",
"    . @ ; > I E E E E E E E E E E E E E E E E E E E E E E E E E E E E E E E E E E E mXBXZX, , , ",
"        o X , , , , , , , , , , , , , , , , , , , , , , , , , , , , , , , , , , , , , , , , , , "
};
